<?xml version="1.0" standalone="no"?>
<!DOCTYPE svg PUBLIC "-//W3C//DTD SVG 20010904//EN"
 "http://www.w3.org/TR/2001/REC-SVG-20010904/DTD/svg10.dtd">
<svg version="1.0" xmlns="http://www.w3.org/2000/svg"
 width="300.000000pt" height="300.000000pt" viewBox="0 0 300.000000 300.000000"
 preserveAspectRatio="xMidYMid meet">
<metadata>
Created by potrace 1.11, written by Peter Selinger 2001-2013
</metadata>
<g transform="translate(0.000000,300.000000) scale(0.100000,-0.100000)"
fill="#000000" stroke="none">
<path d="M1173 2663 c-176 -181 -390 -400 -476 -488 -86 -88 -157 -163 -157
-166 0 -3 432 -5 960 -5 528 0 960 3 960 6 0 3 -8 13 -17 21 -10 9 -78 77
-150 152 l-133 135 -2 258 -3 258 -125 -1 c-69 0 -135 -1 -147 -2 -22 -1 -23
-4 -23 -103 l0 -103 -178 183 c-97 100 -180 182 -183 182 -3 0 -149 -147 -326
-327z"/>
<path d="M532 1713 l3 -178 387 0 c212 0 390 -3 394 -7 7 -8 10 -166 3 -172
-2 -2 -22 -6 -44 -9 -337 -47 -655 -203 -720 -352 -80 -184 106 -363 525 -505
244 -82 364 -158 339 -213 -6 -13 -23 -31 -38 -40 -41 -24 -214 -85 -321 -112
-198 -51 -412 -107 -435 -114 -19 -6 281 -9 817 -10 l846 -1 47 48 c26 26 59
72 73 102 99 213 -108 417 -578 570 l-155 51 0 167 1 167 149 1 c232 2 421
-24 570 -81 37 -14 69 -25 71 -25 1 0 3 61 3 135 0 116 -3 136 -17 144 -14 7
-88 24 -197 45 -129 25 -299 42 -496 50 -36 2 -70 6 -75 9 -7 4 -11 115 -5
147 1 3 173 5 384 5 210 -1 388 1 395 3 9 3 12 47 11 178 l-1 174 -969 0 -969
0 2 -177z m790 -773 c-2 -16 -8 -28 -12 -25 -5 3 -7 13 -5 23 2 9 4 20 4 25 1
4 5 7 9 7 5 0 7 -13 4 -30z"/>
</g>
</svg>
